<svg width="38" height="38" viewBox="0 0 38 38" fill="none" xmlns="http://www.w3.org/2000/svg">
<path d="M33.5833 18.8958C33.5833 14.8333 32.1681 11.3874 29.3375 8.55825C26.5069 5.72909 23.0611 4.31381 19 4.31242V0.145752C21.6042 0.145752 24.0438 0.640891 26.3188 1.63117C28.5938 2.62145 30.5729 3.95825 32.2563 5.64158C33.9396 7.32492 35.2764 9.30408 36.2667 11.5791C37.2569 13.8541 37.7514 16.293 37.75 18.8958H33.5833ZM25.25 18.8958C25.25 17.1596 24.6424 15.6839 23.4271 14.4687C22.2118 13.2534 20.7361 12.6458 19 12.6458V8.47908C21.8819 8.47908 24.3389 9.49506 26.3708 11.527C28.4028 13.5589 29.4181 16.0152 29.4167 18.8958H25.25ZM35.5625 37.7499C31.0833 37.7499 26.7167 36.7513 22.4625 34.7541C18.2083 32.7569 14.441 30.118 11.1604 26.8374C7.87986 23.5569 5.24097 19.7895 3.24375 15.5353C1.24653 11.2812 0.248613 6.9152 0.250001 2.43742C0.250001 1.81242 0.458335 1.29159 0.875001 0.874918C1.29167 0.458252 1.8125 0.249919 2.4375 0.249919H10.875C11.3611 0.249919 11.7951 0.406168 12.1771 0.718668C12.559 1.03117 12.7847 1.43047 12.8542 1.91658L14.2083 9.20825C14.2778 9.69436 14.2688 10.1374 14.1813 10.5374C14.0938 10.9374 13.8944 11.293 13.5833 11.6041L8.58333 16.7083C10.0417 19.2083 11.8646 21.552 14.0521 23.7395C16.2396 25.927 18.6528 27.8194 21.2917 29.4166L26.1875 24.5208C26.5 24.2083 26.9083 23.9742 27.4125 23.8187C27.9167 23.6631 28.4111 23.6194 28.8958 23.6874L36.0833 25.1458C36.5695 25.2499 36.9688 25.4846 37.2813 25.8499C37.5938 26.2152 37.75 26.6402 37.75 27.1249V35.5624C37.75 36.1874 37.5417 36.7083 37.125 37.1249C36.7083 37.5416 36.1875 37.7499 35.5625 37.7499Z" fill="white"/>
</svg>
