<svg width="42" height="34" viewBox="0 0 42 34" fill="none" xmlns="http://www.w3.org/2000/svg">
<path d="M4.33336 33.6666C3.18752 33.6666 2.20627 33.2583 1.38961 32.4416C0.57294 31.6249 0.165302 30.6444 0.166691 29.4999V4.49992C0.166691 3.35409 0.575024 2.37284 1.39169 1.55617C2.20836 0.739505 3.18891 0.331867 4.33336 0.333255H37.6667C38.8125 0.333255 39.7938 0.741588 40.6104 1.55826C41.4271 2.37492 41.8348 3.35548 41.8334 4.49992V29.4999C41.8334 30.6458 41.425 31.627 40.6084 32.4437C39.7917 33.2603 38.8111 33.668 37.6667 33.6666H4.33336ZM37.6667 8.66659L22.0938 18.4062C21.9202 18.5103 21.7375 18.5888 21.5459 18.6416C21.3542 18.6944 21.1722 18.7201 21 18.7187C20.8264 18.7187 20.6438 18.693 20.4521 18.6416C20.2604 18.5902 20.0785 18.5117 19.9063 18.4062L4.33336 8.66659V29.4999H37.6667V8.66659ZM21 14.9166L37.6667 4.49992H4.33336L21 14.9166ZM4.33336 9.18742V6.11451V6.16659V6.14159V9.18742Z" fill="white"/>
</svg>
