<svg width="34" height="42" viewBox="0 0 34 42" fill="none" xmlns="http://www.w3.org/2000/svg">
<path d="M17 21.0001C18.1458 21.0001 19.1271 20.5917 19.9437 19.7751C20.7604 18.9584 21.168 17.9779 21.1666 16.8334C21.1666 15.6876 20.7583 14.7063 19.9416 13.8897C19.125 13.073 18.1444 12.6654 17 12.6667C15.8541 12.6667 14.8729 13.0751 14.0562 13.8917C13.2396 14.7084 12.8319 15.689 12.8333 16.8334C12.8333 17.9792 13.2416 18.9605 14.0583 19.7772C14.875 20.5938 15.8555 21.0015 17 21.0001ZM17 36.3126C21.2361 32.4237 24.3785 28.8904 26.4271 25.7126C28.4757 22.5348 29.5 19.714 29.5 17.2501C29.5 13.4654 28.293 10.3667 25.8791 7.95425C23.4653 5.54175 20.5055 4.3348 17 4.33342C13.493 4.33342 10.5326 5.54036 8.11873 7.95425C5.70484 10.3681 4.49859 13.4667 4.49998 17.2501C4.49998 19.7154 5.52429 22.5369 7.5729 25.7147C9.62151 28.8924 12.7639 32.4251 17 36.3126ZM17 41.8334C11.4097 37.0765 7.2347 32.6584 4.47498 28.5792C1.71526 24.5001 0.334702 20.7237 0.333313 17.2501C0.333313 12.0417 2.00901 7.89244 5.3604 4.80217C8.71179 1.71189 12.5916 0.166748 17 0.166748C21.4097 0.166748 25.2903 1.71189 28.6416 4.80217C31.993 7.89244 33.668 12.0417 33.6666 17.2501C33.6666 20.7223 32.2861 24.4987 29.525 28.5792C26.7639 32.6598 22.5889 37.0779 17 41.8334Z" fill="white"/>
</svg>
