<svg width="42" height="42" viewBox="0 0 42 42" fill="none" xmlns="http://www.w3.org/2000/svg">
<path d="M20.9998 41.8334C18.1179 41.8334 15.4096 41.2862 12.8748 40.1917C10.3401 39.0973 8.13525 37.6133 6.26025 35.7397C4.38525 33.8647 2.90123 31.6598 1.80817 29.1251C0.715115 26.5904 0.167893 23.882 0.166504 21.0001C0.166504 18.1181 0.713726 15.4098 1.80817 12.8751C2.90262 10.3404 4.38664 8.1355 6.26025 6.2605C8.13525 4.3855 10.3401 2.90147 12.8748 1.80842C15.4096 0.715359 18.1179 0.168137 20.9998 0.166748C23.8818 0.166748 26.5901 0.71397 29.1248 1.80842C31.6596 2.90286 33.8644 4.38689 35.7394 6.2605C37.6144 8.1355 39.0991 10.3404 40.1936 12.8751C41.288 15.4098 41.8346 18.1181 41.8332 21.0001C41.8332 23.882 41.2859 26.5904 40.1915 29.1251C39.0971 31.6598 37.613 33.8647 35.7394 35.7397C33.8644 37.6147 31.6596 39.0994 29.1248 40.1938C26.5901 41.2883 23.8818 41.8348 20.9998 41.8334ZM21.4165 23.0834L19.5415 24.9584C19.1596 25.3404 18.9686 25.8265 18.9686 26.4167C18.9686 27.007 19.1596 27.4931 19.5415 27.8751C19.9235 28.257 20.4096 28.448 20.9998 28.448C21.5901 28.448 22.0762 28.257 22.4582 27.8751L27.8748 22.4584C28.2915 22.0417 28.4998 21.5556 28.4998 21.0001C28.4998 20.4445 28.2915 19.9584 27.8748 19.5417L22.4582 14.1251C22.0762 13.7431 21.5901 13.5522 20.9998 13.5522C20.4096 13.5522 19.9235 13.7431 19.5415 14.1251C19.1596 14.507 18.9686 14.9931 18.9686 15.5834C18.9686 16.1737 19.1596 16.6598 19.5415 17.0417L21.4165 18.9167H14.7498C14.1596 18.9167 13.6644 19.1167 13.2644 19.5168C12.8644 19.9167 12.6651 20.4112 12.6665 21.0001C12.6665 21.5904 12.8665 22.0855 13.2665 22.4855C13.6665 22.8855 14.1609 23.0848 14.7498 23.0834H21.4165Z" fill="white"/>
</svg>
