<svg width="512" height="512" viewBox="0 0 512 512" fill="none" xmlns="http://www.w3.org/2000/svg">
<g clip-path="url(#clip0_431_14)">
<path d="M255.104 512.171L240.233 499.424C219.732 482.258 40.725 327.661 40.725 214.577C40.725 96.179 136.706 0.197998 255.104 0.197998C373.502 0.197998 469.483 96.179 469.483 214.577C469.483 327.662 290.476 482.259 270.06 499.509L255.104 512.171ZM255.104 46.553C162.351 46.658 87.186 121.823 87.081 214.576C87.081 285.618 197.213 399.106 255.104 451.049C312.996 399.085 423.127 285.532 423.127 214.576C423.022 121.823 347.858 46.659 255.104 46.553Z" fill="white"/>
<path d="M255.104 299.555C208.172 299.555 170.126 261.509 170.126 214.577C170.126 167.645 208.172 129.599 255.104 129.599C302.036 129.599 340.082 167.645 340.082 214.577C340.082 261.509 302.037 299.555 255.104 299.555ZM255.104 172.087C231.638 172.087 212.615 191.11 212.615 214.576C212.615 238.042 231.638 257.065 255.104 257.065C278.57 257.065 297.593 238.042 297.593 214.576C297.593 191.11 278.571 172.087 255.104 172.087Z" fill="white"/>
</g>
<defs>
<clipPath id="clip0_431_14">
<rect width="512" height="512" fill="white"/>
</clipPath>
</defs>
</svg>
